<svg id="visual" viewBox="0 0 900 600" width="900" height="600" xmlns="http://www.w3.org/2000/svg" xmlns:xlink="http://www.w3.org/1999/xlink" version="1.1"><g stroke-width="1" stroke-linejoin="bevel"><path d="M469 269L426 200L404 265Z" fill="#111111" stroke="#111111"></path><path d="M426 200L327 226L404 265Z" fill="#0d0d0d" stroke="#0d0d0d"></path><path d="M469 269L538 182L426 200Z" fill="#111111" stroke="#111111"></path><path d="M327 226L300 305L404 265Z" fill="#111111" stroke="#111111"></path><path d="M404 265L408 398L469 269Z" fill="#212121" stroke="#212121"></path><path d="M300 305L408 398L404 265Z" fill="#212121" stroke="#212121"></path><path d="M469 269L598 211L538 182Z" fill="#212121" stroke="#212121"></path><path d="M609 290L598 211L469 269Z" fill="#191919" stroke="#191919"></path><path d="M586 139L524 90L538 182Z" fill="#212121" stroke="#212121"></path><path d="M538 182L524 90L426 200Z" fill="#050505" stroke="#050505"></path><path d="M426 200L398 70L327 226Z" fill="#0d0d0d" stroke="#0d0d0d"></path><path d="M524 90L398 70L426 200Z" fill="#141414" stroke="#141414"></path><path d="M521 435L609 290L469 269Z" fill="#000000" stroke="#000000"></path><path d="M598 211L586 139L538 182Z" fill="#191919" stroke="#191919"></path><path d="M398 70L276 116L327 226Z" fill="#090909" stroke="#090909"></path><path d="M327 226L231 200L300 305Z" fill="#141414" stroke="#141414"></path><path d="M276 116L231 200L327 226Z" fill="#050505" stroke="#050505"></path><path d="M408 398L521 435L469 269Z" fill="#0d0d0d" stroke="#0d0d0d"></path><path d="M181 307L263 377L300 305Z" fill="#111111" stroke="#111111"></path><path d="M300 305L263 377L408 398Z" fill="#1c1c1c" stroke="#1c1c1c"></path><path d="M408 398L512 476L521 435Z" fill="#050505" stroke="#050505"></path><path d="M521 435L568 429L609 290Z" fill="#171717" stroke="#171717"></path><path d="M263 377L385 473L408 398Z" fill="#171717" stroke="#171717"></path><path d="M521 435L560 478L568 429Z" fill="#1e1e1e" stroke="#1e1e1e"></path><path d="M621 0L494 0L524 90Z" fill="#000000" stroke="#000000"></path><path d="M524 90L494 0L398 70Z" fill="#1e1e1e" stroke="#1e1e1e"></path><path d="M398 70L364 0L276 116Z" fill="#1c1c1c" stroke="#1c1c1c"></path><path d="M385 473L512 476L408 398Z" fill="#141414" stroke="#141414"></path><path d="M494 0L364 0L398 70Z" fill="#191919" stroke="#191919"></path><path d="M609 290L687 188L598 211Z" fill="#000000" stroke="#000000"></path><path d="M598 211L687 188L586 139Z" fill="#171717" stroke="#171717"></path><path d="M586 139L621 0L524 90Z" fill="#191919" stroke="#191919"></path><path d="M724 304L687 188L609 290Z" fill="#050505" stroke="#050505"></path><path d="M231 200L181 307L300 305Z" fill="#050505" stroke="#050505"></path><path d="M512 476L560 478L521 435Z" fill="#000000" stroke="#000000"></path><path d="M705 416L724 304L609 290Z" fill="#1e1e1e" stroke="#1e1e1e"></path><path d="M566 600L560 478L512 476Z" fill="#090909" stroke="#090909"></path><path d="M276 116L197 111L231 200Z" fill="#212121" stroke="#212121"></path><path d="M112 231L113 262L181 307Z" fill="#0d0d0d" stroke="#0d0d0d"></path><path d="M268 0L197 111L276 116Z" fill="#000000" stroke="#000000"></path><path d="M181 307L204 388L263 377Z" fill="#090909" stroke="#090909"></path><path d="M263 377L289 537L385 473Z" fill="#191919" stroke="#191919"></path><path d="M705 416L609 290L568 429Z" fill="#191919" stroke="#191919"></path><path d="M364 0L268 0L276 116Z" fill="#191919" stroke="#191919"></path><path d="M724 118L621 0L586 139Z" fill="#050505" stroke="#050505"></path><path d="M687 188L724 118L586 139Z" fill="#141414" stroke="#141414"></path><path d="M761 107L724 118L808 211Z" fill="#171717" stroke="#171717"></path><path d="M560 478L705 416L568 429Z" fill="#000000" stroke="#000000"></path><path d="M112 231L181 307L231 200Z" fill="#171717" stroke="#171717"></path><path d="M181 307L99 362L204 388Z" fill="#090909" stroke="#090909"></path><path d="M113 67L112 231L197 111Z" fill="#141414" stroke="#141414"></path><path d="M197 111L112 231L231 200Z" fill="#191919" stroke="#191919"></path><path d="M222 497L289 537L263 377Z" fill="#212121" stroke="#212121"></path><path d="M385 473L472 600L512 476Z" fill="#111111" stroke="#111111"></path><path d="M222 497L263 377L204 388Z" fill="#1e1e1e" stroke="#1e1e1e"></path><path d="M92 520L222 497L204 388Z" fill="#141414" stroke="#141414"></path><path d="M705 416L764 323L724 304Z" fill="#212121" stroke="#212121"></path><path d="M724 304L808 211L687 188Z" fill="#0d0d0d" stroke="#0d0d0d"></path><path d="M268 0L193 0L197 111Z" fill="#050505" stroke="#050505"></path><path d="M724 118L688 0L621 0Z" fill="#191919" stroke="#191919"></path><path d="M808 211L724 118L687 188Z" fill="#171717" stroke="#171717"></path><path d="M724 118L761 107L688 0Z" fill="#1e1e1e" stroke="#1e1e1e"></path><path d="M0 303L99 362L113 262Z" fill="#1c1c1c" stroke="#1c1c1c"></path><path d="M113 262L99 362L181 307Z" fill="#141414" stroke="#141414"></path><path d="M362 600L472 600L385 473Z" fill="#050505" stroke="#050505"></path><path d="M560 478L714 523L705 416Z" fill="#050505" stroke="#050505"></path><path d="M264 600L362 600L289 537Z" fill="#1c1c1c" stroke="#1c1c1c"></path><path d="M289 537L362 600L385 473Z" fill="#1c1c1c" stroke="#1c1c1c"></path><path d="M193 0L113 67L197 111Z" fill="#090909" stroke="#090909"></path><path d="M112 231L0 229L113 262Z" fill="#212121" stroke="#212121"></path><path d="M764 323L808 211L724 304Z" fill="#141414" stroke="#141414"></path><path d="M472 600L566 600L512 476Z" fill="#1c1c1c" stroke="#1c1c1c"></path><path d="M566 600L714 523L560 478Z" fill="#171717" stroke="#171717"></path><path d="M705 416L814 404L764 323Z" fill="#090909" stroke="#090909"></path><path d="M900 305L900 215L808 211Z" fill="#171717" stroke="#171717"></path><path d="M193 0L122 0L113 67Z" fill="#171717" stroke="#171717"></path><path d="M172 600L264 600L222 497Z" fill="#1e1e1e" stroke="#1e1e1e"></path><path d="M222 497L264 600L289 537Z" fill="#1c1c1c" stroke="#1c1c1c"></path><path d="M714 523L814 404L705 416Z" fill="#1c1c1c" stroke="#1c1c1c"></path><path d="M0 61L0 229L113 67Z" fill="#050505" stroke="#050505"></path><path d="M113 67L0 229L112 231Z" fill="#090909" stroke="#090909"></path><path d="M99 362L92 520L204 388Z" fill="#212121" stroke="#212121"></path><path d="M0 229L0 303L113 262Z" fill="#141414" stroke="#141414"></path><path d="M566 600L699 600L714 523Z" fill="#171717" stroke="#171717"></path><path d="M714 523L837 515L814 404Z" fill="#000000" stroke="#000000"></path><path d="M0 430L92 520L99 362Z" fill="#171717" stroke="#171717"></path><path d="M92 520L172 600L222 497Z" fill="#000000" stroke="#000000"></path><path d="M900 120L824 0L761 107Z" fill="#1e1e1e" stroke="#1e1e1e"></path><path d="M761 107L824 0L688 0Z" fill="#1e1e1e" stroke="#1e1e1e"></path><path d="M900 120L761 107L808 211Z" fill="#141414" stroke="#141414"></path><path d="M900 305L808 211L764 323Z" fill="#0d0d0d" stroke="#0d0d0d"></path><path d="M814 404L900 305L764 323Z" fill="#000000" stroke="#000000"></path><path d="M900 434L900 305L814 404Z" fill="#171717" stroke="#171717"></path><path d="M0 0L0 61L113 67Z" fill="#141414" stroke="#141414"></path><path d="M900 215L900 120L808 211Z" fill="#0d0d0d" stroke="#0d0d0d"></path><path d="M0 303L0 430L99 362Z" fill="#171717" stroke="#171717"></path><path d="M92 520L80 600L172 600Z" fill="#111111" stroke="#111111"></path><path d="M815 600L837 515L714 523Z" fill="#141414" stroke="#141414"></path><path d="M122 0L0 0L113 67Z" fill="#090909" stroke="#090909"></path><path d="M900 476L900 434L814 404Z" fill="#111111" stroke="#111111"></path><path d="M0 430L0 495L92 520Z" fill="#000000" stroke="#000000"></path><path d="M0 600L80 600L92 520Z" fill="#090909" stroke="#090909"></path><path d="M837 515L900 476L814 404Z" fill="#000000" stroke="#000000"></path><path d="M900 120L900 0L824 0Z" fill="#1c1c1c" stroke="#1c1c1c"></path><path d="M699 600L815 600L714 523Z" fill="#000000" stroke="#000000"></path><path d="M837 515L900 600L900 476Z" fill="#212121" stroke="#212121"></path><path d="M0 495L0 600L92 520Z" fill="#191919" stroke="#191919"></path><path d="M815 600L900 600L837 515Z" fill="#171717" stroke="#171717"></path></g></svg>